# xmcd
#
# Track frame offsets:
#	150
#	19456
#	36188
#	51851
#	66539
#	86549
#	103939
#	114754
#	132894
#	147512
#	165287
#	179555
#	196150
#	210272
#
# Disc length: 3019
#
# Revision: 2
# Processed by: cddbd v1.5.1PL0 Copyright (c) Steve Scherf et al.
# Submitted via: audiograbber 1.82.02
# Normalized: r1:DSETVAR1
#
DISCID=c50bc90e
DTITLE=Various Artist - Hot Hits Country Vol. 88
DYEAR=1999
DGENRE=Country
TTITLE0=Faith Hill - The Secret Of Life
TTITLE1=George Strait - Write This Down
TTITLE2=Dixie Chicks - Tonight The Heartache's On Me
TTITLE3=Montgomery Gentry - Hillbilly Shoes
TTITLE4=Trisha Yearwood - I'll Still Love You More
TTITLE5=Brooks and Dunn - South Of Santa Fe
TTITLE6=Dwight Yoakam - Crazy Little Thing Called Love
TTITLE7=Lonestar - Amazed
TTITLE8=Redmon and Vale - If I Had A Nickel (One Thin Dime)
TTITLE9=Paul Brandt - That's The Truth
TTITLE10=Sara Evans - Fool, I'm A Woman
TTITLE11=David Ball - Watching My Baby Not Coming Back
TTITLE12=Ricochet - Seven Bridges Road
TTITLE13=Mark Chesnutt - This Heartache Never Sleeps
EXTD=
EXTT0=
EXTT1=
EXTT2=
EXTT3=
EXTT4=
EXTT5=
EXTT6=
EXTT7=
EXTT8=
EXTT9=
EXTT10=
EXTT11=
EXTT12=
EXTT13=
PLAYORDER=
